<svg xmlns="http://www.w3.org/2000/svg" xmlns:xlink="http://www.w3.org/1999/xlink" width="30" height="30" viewBox="0 0 30 30">
  <defs>
    <rect id="rect-1" width="30" height="30" x="0" y="0"/>
    <mask id="mask-2" maskContentUnits="userSpaceOnUse" maskUnits="userSpaceOnUse">
      <rect width="30" height="30" x="0" y="0" fill="black"/>
      <use fill="white" xlink:href="#rect-1"/>
    </mask>
  </defs>
  <g>
    <use fill="none" xlink:href="#rect-1"/>
    <g mask="url(#mask-2)">
      <path fill="rgb(157,46,255)" fill-rule="evenodd" d="M14.93481458 2.90325605c-.32361265 0-.58593636.2623237-.58593636.58593635v4.28817522c0 .32361265.26232371.58593636.58593636.58593636.32355406 0 .58593636-.2623237.58593636-.58593636V3.4891924c0-.32361265-.2623823-.58593635-.58593636-.58593635z"/>
      <path fill="rgb(157,46,255)" fill-rule="evenodd" d="M15.34918877.61845582c-.10898416-.10898416-.26015574-.17167935-.414257-.17167935-.1546872 0-.30527284.0626952-.414257.17167935-.10898417.10898417-.17167936.26015575-.17167936.414257 0 .15410127.0626952.30527285.17167935.41425701.10898417.10898416.25956981.17167935.414257.17167935.15410127 0 .30527285-.06269519.41425701-.17167935.10898416-.10898416.17167935-.26015574.17167935-.414257 0-.15410126-.06275378-.30527284-.17167935-.414257z"/>
      <path fill="rgb(157,46,255)" fill-rule="evenodd" d="M17.03398132 8.99243164v1.19665527c4.26779175.95941163 7.46594239 4.77929688 7.46594239 9.3324585 0 5.27423096-4.29086304 9.56512451-9.56510926 9.56512451-2.08676147 0-4.01924133-.67218017-5.59329223-1.81079101-.03833008-.02185059-.07418824-.04785157-.10676575-.07788086-2.34391785-1.74493409-3.86506653-4.53637696-3.86506653-7.67645264 0-3.1397705 1.5209198-5.93060303 3.86442566-7.67547607.03375244-.03112793.07066345-.05853272.11050415-.08093262 1.02949524-.74395752 2.21214295-1.28851318 3.49101257-1.5760498V8.99243163c0-.99310303.80795289-1.80102539 1.80105591-1.80102539h.59623719c.99311828 0 1.8010559.80792236 1.8010559 1.8010254zm-2.39729309-.62915039c-.34693908 0-.6291809.28222656-.6291809.6291504v1.00915526c.30522155-.02954101.61447143-.04516601.92730712-.04516601.31282044 0 .62208557.015625.92729187.04516601V8.99243164c0-.34692383-.28224182-.62915039-.62916565-.62915039h-.59625244zm-.86753845 2.84637451c.38110352-.05310058.77009583-.08129883 1.16566467-.08129883.35618592 0 .70716858.02252198 1.05181885.06573487.3154602 1.44195556.54830933 2.9072876.69685364 4.37817382-1.20152283-.0635376-2.40415955-.0612793-3.60562134.0062256.1463623-1.46948243.37722778-2.92926026.69128418-4.36883546zm5.8218689 1.33215332c.30200195 1.12615967.5302124 2.2675171.68338012 3.41674805-.80021667-.12994385-1.60194397-.2310791-2.4046173-.30249024-.13523865-1.41119384-.34640504-2.8182373-.63105775-4.20617675.84597779.24188232 1.63763428.61358642 2.35229493 1.09191894zm-9.44793701.09283447c.71678161-.50024414 1.51489257-.89147949 2.37023925-1.14971923-.28207397 1.38122558-.49049377 2.77801513-.62449646 4.18157959-.80343628.07415771-1.60598755.17724609-2.40690613.31018066.14894105-1.1237793.36984253-2.24005127.66116334-3.34204102zm11.51992797 3.57867432l1.0767212.22106934c-.38414002-.96783448-.94360352-1.84747315-1.6385193-2.6003418.16030885.7765503.2875824 1.55834961.38150025 2.34338379.0600586.01202393.12023926.02349853.18029785.03588867zM8.2730713 16.20007324c.08778381-.73876953.20484924-1.47473144.35139465-2.20617676-.628479.71655274-1.13731384 1.54040528-1.49455261 2.4404297l1.0767212-.22106934c.0221405-.0045166.04429626-.008667.06643676-.0131836zm9.67919922 6.02453614c.81855774-.0744629 1.63598633-.17926026 2.45167541-.31433106.14021302-1.5770874.14138794-3.1638794.00334168-4.7411499-.81246948-.14019776-1.62680054-.24914551-2.44212342-.3267212.01177979.18023682.02284241.36047364.03216553.54064942.01675415.32312012-.23162842.59869385-.55482483.61547852-.0102539.00048828-.02056884.00079345-.03082275.00079345-.3097229 0-.56846619-.24279785-.5846405-.55560302-.0119629-.23059082-.02648926-.46118164-.04266358-.69171143-1.2679596-.07354736-2.53739929-.07165527-3.80529785.00610352-.12715149 1.8458252-.12246704 3.7019043.01359558 5.54699707 1.25881958.07354736 2.51922608.07543945 3.77816773.00585937.0151825-.20257568.02919006-.40509033.0411377-.60760498.01898192-.32299805.29519652-.56964111.61933898-.55047607.32307434.01904297.56951904.29632568.5504303.61938476-.0088501.15075684-.01887512.3015747-.02947998.45233154zm-6.15878296-5.37164307c-.815979.08050537-1.6308899.19238281-2.44400025.33563232-.13575744 1.56463623-.13452148 3.13848877.00340271 4.7029419.81620789.13800049 1.63423157.24560547 2.45336915.32281494-.06738282-.9595337-.1006012-1.92126465-.0980835-2.88226318.00222778-.82659913.03135681-1.65356446.08531189-2.47912598zm9.80441284 4.83868408l1.50538635-.29693603c.00474549-.00097657.00949097-.00128174.01423645-.0020752.1375885-.60186768.21046448-1.22802734.21046448-1.87103271 0-.62213135-.06860351-1.2284546-.19763184-1.8123169-.01054382-.00158691-.0210266-.00268555-.03158569-.00488281l-1.49746704-.30749512c.1081543 1.4295044.10710144 2.86541748-.0034027 4.29473877zm-14.84587097-.29907226c-.13757324-.60186768-.21046448-1.22808838-.21046448-1.87103272 0-.62213135.06861878-1.22839355.19763184-1.81225586.01049804-.00158691.02098083-.00274658.03152466-.00488281l1.38475036-.2843628c-.10588074 1.41442872-.1047058 2.83508301.00344849 4.24938965l-1.39265442-.27471923c-.00474548-.00097657-.00949097-.00134278-.01423645-.00213623zm1.45898437 1.48162841l-1.05796814-.20874023c.35601807.87792969.8562317 1.68231201 1.47140503 2.3838501-.14367675-.71697998-.25875854-1.43829346-.345932-2.16223145-.02250672-.00439453-.04501343-.00848389-.06750489-.01287842zm12.89013672 2.33496094c.15737915-.7623291.28271485-1.52978516.3761139-2.300354.06040954-.01159668.12088012-.02276612.18122863-.03460694l1.05802918-.20874023c-.38331604.94543457-.93405152 1.805542-1.6153717 2.54370117zM10.14308167 26.4085083c-.2882843-1.09051514-.50772095-2.19500732-.65660096-3.30706787.80566407.12835693 1.61296082.22784424 2.42120362.2991333.14039611 1.3994751.35414123 2.79205322.64183044 4.168396-.86904907-.2579956-1.67958069-.65313721-2.4064331-1.16046143zm9.447937.0928955c-.72509765.4852295-1.52952575.86071778-2.3895111 1.10217286.29016113-1.38232422.50753784-2.7857666.64933777-4.19317627.80741882-.06854248 1.61390686-.16601562 2.41880798-.2915039-.15310669 1.13763427-.37963867 2.26757812-.67863464 3.38250732zm-3.6423645 1.35205079l.00175477-.00793457c.3201599-1.43261719.55874633-2.89111328.71379089-4.35491943-.57626343.02893066-1.15283203.04370117-1.72938538.04370117-.6125946 0-1.2250824-.01696778-1.83732605-.04968262.15304566 1.46496582.38900757 2.92004395.70915223 4.35412598.36914062.04980468.74560546.0760498 1.12817382.07611084.3431244 0 .68138123-.0211792 1.01383972-.06140137z"/>
      <path fill="rgb(157,46,255)" fill-rule="evenodd" d="M17.83818782 19.10709159c-.10892557-.10898416-.26009715-.17167935-.41419841-.17167935-.15410127 0-.30527284.06269519-.414257.17167935-.10904276.10898416-.17167936.26015574-.17167936.41484294 0 .15410126.0626952.3046869.17167935.414257.10898417.10898416.26015574.17109342.414257.17109342.15410127 0 .30527285-.06210926.41419842-.17109342.10904275-.1095701.17173794-.26015574.17173794-.414257 0-.1546872-.06275378-.30527284-.17173794-.41484294z"/>
      <path fill="rgb(157,46,255)" fill-rule="evenodd" d="M3.420578 24.2095337c.22775269.90979003.93252564 1.62384032 1.8393097 1.86334228.26098632.06848144.44413757.30560302.44444274.57641601.00028992.27075196-.18223571.50823975-.44396972.57763672-.90725708.23968506-1.61209107.95367432-1.83978272 1.8635254-.0652771.26074218-.2996521.44366454-.5684204.44366454-.26876832 0-.50308228-.18292236-.56841279-.44366455-.22775268-.90979004-.93257904-1.62384033-1.83978271-1.86346435C.18257904 27.1576538 0 26.92034912 0 26.64996338s.18257904-.50769043.4439621-.57696533c.9072647-.23968506 1.61203003-.95367432 1.83978271-1.86346436.0652771-.26074219.29958344-.44366455.56841278-.44366455.26882935 0 .50314331.18292236.56842041.44366455zm-1.48112487 2.44042968c.35466766.24908447.66369628.55810547.91271972.91259766.24906922-.3544922.55804444-.66351319.9127655-.9126587-.35472106-.2491455-.66374206-.55810547-.9127655-.91253662-.24908447.35449219-.55805206.66351319-.91271973.91259766z"/>
      <path fill="rgb(157,46,255)" fill-rule="evenodd" d="M10.17384338 8.25134277c-.01002502-.02111816-.02079773-.041687-.0316925-.06213379-.00498963-.01287841-.00984192-.02575683-.01582337-.0383911l-2.03326416-4.2963257c-.06996154-.14782714-.19856262-.25976562-.35472106-.3085327-.15615845-.04882813-.3256073-.03021241-.4673462.05145263L2.81066895 6.16571045c-.26460267.15240478-.36784363.48242187-.23724366.75836182L3.82411194 9.5668335c-.29051209.02142334-.58511353.09899902-.86390686.230896-.46517182.2201538-.85710907.57232665-1.10360718.99163818-.28881073.49127197-.33603668 1.02319336-.12960815 1.45935058.2064209.43621826.64775085.73687744 1.21076965.82507324.11801147.01849366.23835754.02764893.35983276.02764893.37306214 0 .75579834-.08624268 1.10671997-.25231934.46792603-.2213745.84672547-.57373047 1.06663514-.99194336.24539184-.4666748.2692871-.9810791.06567382-1.41131591-.00978088-.02075196-.02055359-.0409546-.03134155-.0610962-.00509643-.01318359-.01013183-.02642822-.01623535-.03936767L3.86395264 6.91143799l3.4414978-1.98162842L8.4599762 7.36932373c-.28312683.0220337-.57626343.09832764-.8624878.23382568-.46524048.22015381-.85717773.57232666-1.10362243.99163819-.2888031.49127197-.33602906 1.02319336-.12960816 1.45941162.2585144.54614258.88090515.85150146 1.5791626.85150146.35905457 0 .73828125-.08081054 1.09822083-.25109863 1.03974914-.4920044 1.53703308-1.54766846 1.13220214-2.40325928zM7.42346191 9.55297852c.08712769.1842041.62220765.27655029 1.11680603.04241943.45509339-.21539307.67851258-.6225586.5742035-.8427124-.06216431-.13146973-.25012207-.21484375-.48825074-.21484375-.16065979 0-.34417724.03790283-.52752685.12469482-.24749756.11712647-.46980286.31378174-.5946045.52618408-.08512878.14483643-.1167755.2878418-.08062744.36425782zM3.98817444 10.7322998c.0621643 0 .122406.0057373.17941284.01745606.08947754.01837158.24867249.06842041.30966187.19744873.06111145.12890625-.00105286.28381348-.04359436.36462402-.10095215.1920166-.29437256.36627198-.53067017.47808838-.24751282.11712647-.54052734.16436768-.78393555.1262207-.1659851-.02600097-.29666137-.09216308-.33287048-.16864013-.03614807-.07641602-.00450134-.21936035.08062744-.36425781.12480164-.21240235.34710693-.40911866.5946045-.52624512.17291259-.08184815.35713195-.12469483.5267639-.12469483z"/>
      <path fill="rgb(157,46,255)" fill-rule="evenodd" d="M24.4822998 5.5112915c.22781373.90979004.93258667 1.62384034 1.83943177 1.86334229.26239013.06970215.44473266.30725098.44438171.57788086-.00030517.27056885-.18328857.5076294-.44496155.57647705-.90626526.23937988-1.6110382.95343017-1.83885193 1.86322021-.06521606.26080323-.29959106.44372559-.56835937.44372559-.26882935 0-.50314331-.18292236-.56840515-.44366455-.22770691-.90979004-.9324646-1.62384033-1.83932495-1.86334229-.26167298-.06915283-.4444275-.30639648-.4444275-.57714843 0-.27093506.1829834-.50830078.44502259-.57727051.90626526-.23937988 1.61102295-.95336914 1.83872986-1.86322022.06526184-.26074218.2995758-.44366455.56840515-.44366455.26876831 0 .50314331.18286133.56835937.44366455zm-1.48101806 2.44049073c.35472107.24908447.66363525.55810547.91265869.91253662.24908447-.35443115.5579834-.66339112.91264343-.91253662-.35466003-.24908448-.66355896-.55804444-.91264343-.91259766-.24902344.35455322-.55804443.66351318-.9126587.91259766z"/>
      <path fill="rgb(157,46,255)" fill-rule="evenodd" d="M26.85879517 22.54638672c.01423645.00616455 1.46482849.6239624 2.57963562.67053223.32331848.01342773.57450866.28649902.56103515.60992431-.0134735.32330322-.2857666.57373047-.60984802.56097412-.79194641-.03302002-1.67611694-.28668213-2.27746582-.49316406l-.54293823 4.15344238c-.00076294.00604248-.00222779.01184082-.00315857.01782227-.00105286.00939941-.00158692.01867676-.00280762.0281372-.1127472.86199952-.94325256 1.45916749-1.95826721 1.45916749-.11308289 0-.2284546-.0074463-.34545899-.02276612-.5228424-.06829834-1.0157318-.28839111-1.3878479-.61956787-.4345398-.38684082-.64723205-.88824463-.58348083-1.37567138.06375122-.4874878.39814758-.9173584.9174652-1.1795044.44465638-.22442627.97756959-.31048584 1.50045777-.24206543.33163452.04333496.6348114.14483643.89619446.28967285l.44372559-3.39465332c.02384948-.1821289.13165283-.3425293.29138183-.4333496.15956116-.09088135.35255432-.1015625.52137757-.02893067zm-2.44744873 5.82208252c.52557373.06872558.95606994-.16845703.98982238-.42633057.0336914-.2579956-.32133484-.59777832-.84692382-.6665039-.06375123-.00836182-.12866211-.01239014-.19352723-.01239014-.22412109 0-.44859314.04858398-.6270752.13861084-.16259765.08209228-.27122497.19134521-.28347778.28521728-.01229858.09387207.06463624.22735596.20063782.34851075.1925354.17138671.4768219.2958374.76054383.33288574z"/>
    </g>
  </g>
</svg>
