<svg xmlns="http://www.w3.org/2000/svg" width="27" height="27.827" viewBox="0 0 27 27.827">
  <path fill="rgb(247,164,0)" fill-rule="evenodd" d="M23.0225277 9.60809326v5.07849121c.3703308.10766602.73149871.24639893 1.07989501.41479492V6.3310547c-.00188827-1.71624756-1.35128784-3.10705567-3.0164299-3.1090088h-.7315483V1.72686769C20.35320853.7727661 19.60243796 0 18.67674827 0c-.92569352 0-1.67646027.77276611-1.67770005 1.72686768V3.2220459H7.10307884V1.72686768C7.10184288.7727661 6.35107231 0 5.42538261 0c-.9256935 0-1.67646026.77276611-1.67770004 1.72686768V3.2220459H3.016428C1.35128593 3.22399902.00188446 4.61480713 0 6.33105469v13.97161865c.00188446 1.71624756 1.35128593 3.10705566 3.016428 3.10900879H14.1723194c-.0833168-.36602783-.1390419-.73815918-.1666832-1.11303711H3.016428c-1.0690136-.0012207-1.9353218-.894104-1.9365387-1.99597168V9.60809326h21.9426384zm-4.94358826-4.21942139c0 .340271.26764679.6161499.59780884.6161499.33015823 0 .59780502-.2758789.59780502-.6161499V1.72692872c0-.340271-.2676468-.6161499-.59780502-.6161499-.33016205 0-.59780884.2758789-.59780884.6161499v3.66174316zm-12.65356064.6147461c-.32963562 0-.59706497-.27502442-.59780502-.61480713V1.72692871c.00074005-.33978271.2681694-.61480713.59780502-.61480713.32963943 0 .59706879.27502442.59780502.61480713v3.66168213c-.00073623.33978271-.26816559.61480713-.59780502.61480713zm17.5971489 2.49163818V6.3310547c-.00121308-1.10180664-.8675232-1.99475098-1.9365387-1.99597168h-.7315445v1.05352783c-.00123596.95410156-.75200653 1.72692871-1.67769622 1.72692871-.92569352 0-1.67646027-.77282715-1.67770005-1.72692871V4.33508301H7.10307884v1.05352783c-.00123596.95410156-.75200653 1.72692871-1.67769623 1.72692871-.9256935 0-1.67646408-.77282715-1.67770004-1.72692871V4.33508301H3.016428c-1.0690136.0012207-1.9353218.89416504-1.9365387 1.99597168v2.16400146h21.9426384zm-9.74567414 4.88989258H10.825552v-2.16448975h2.45130157v2.16448975zm4.0066719-2.16448975H14.8322239v2.16448975h2.45130158v-2.16448975zm4.0066681 0v2.16448975h-2.45130158v-2.16448975h2.45130158zm-5.64508438 5.81469727h-.81299973V14.8706665h2.45100021v.6864624c-.61688995.4024048-1.1694641.90100098-1.63800048 1.47802735zM5.26350212 14.87115479H2.81222725v2.16448974h2.45130157l-.0000267-2.16448974zm1.55539703 0h2.45127488l.00001144 2.16448974H6.81889915V14.8711548zm6.45794297 0h-2.45130158v2.16448974h2.45130158V14.8711548zM23.35254097 27.362854c2.20790482-.94262695 3.64748764-3.16326904 3.64747238-5.62646484-.00370025-3.3618164-2.6469307-6.08618164-5.908638-6.08996582-2.38982391 0-4.5443306 1.48376465-5.45887375 3.75946045-.91454315 2.2756958-.40901565 4.8951416 1.28084946 6.63684082 1.68986893 1.74176025 4.2312851 2.26275635 6.43918991 1.3201294zm2.56758118-5.62646484c-.00006104-2.74871826-2.16199112-4.97692871-4.8288231-4.97686768-2.66682815 0-4.82869338 2.22827149-4.8286743 4.97698975.00002288 2.74871826 2.16191863 4.97692871 4.8287506 4.97692871 2.66562271-.0031128 4.82575989-2.22961426 4.8287468-4.97705078zm-23.1078949-1.0499878h2.45130157v-2.16448974H2.81222725v2.16448975zm6.45795822 0H6.81889915v-2.16448974h2.45128632v2.16448975zm1.55538178 0h2.45130157v-2.16448974h-2.45130157v2.16448975zm7.87428665.39953614l1.72969818 1.7826538 3.66124725-3.7736206.76348114.78723145-4.42473984 4.56048584-2.49318695-2.56951904.76350022-.78723145z"/>
</svg>
