<svg xmlns="http://www.w3.org/2000/svg" xmlns:xlink="http://www.w3.org/1999/xlink" width="24" height="24" viewBox="0 0 24 24">
  <defs>
    <path id="path-2" fill-rule="evenodd" d="M11 6c-1.3062191 0-2.41745758-.83480787-2.8292942-2H0V2h8.1707058C8.58254242.83480763 9.6937809 0 11 0s2.41745758.83480763 2.8292942 2H16v2h-2.1707058C13.41745758 5.16519213 12.3062191 6 11 6zm1-3c0 .55228472-.44771576 1-1 1-.5522852 0-1-.44771528-1-1 0-.55228472.4477148-1 1-1 .55228424 0 1 .44771528 1 1zm-7 9c-1.30621886 0-2.41745806-.8348074-2.82929444-2H0V8h2.1707058C2.58254218 6.83480787 3.69378138 6 5 6s2.41745758.83480787 2.8292942 2H16v2H7.8292942C7.41745758 11.1651926 6.30621862 12 5 12zm1-3c0 .55228424-.44771528 1-1 1-.55228472 0-1-.44771576-1-1 0-.5522852.44771528-1 1-1 .55228472 0 1 .4477148 1 1z"/>
    <mask id="mask-3" maskContentUnits="userSpaceOnUse" maskUnits="userSpaceOnUse">
      <rect width="24" height="24" x="0" y="0" fill="black"/>
      <use fill="white" xlink:href="#path-2"/>
    </mask>
  </defs>
  <g>
    <rect width="24" height="24" x="0" y="0" fill="none" rx="0" ry="0"/>
    <g transform="translate(4 6)">
      <use fill="rgb(216,216,216)" xlink:href="#path-2"/>
      <g mask="url(#mask-3)">
        <g transform="translate(-4 -6)">
          <rect width="24" height="24" x="0" y="0" fill="rgb(95,92,127)"/>
          <rect width="24" height="24" x="0" y="0" fill="rgb(95,92,127)" rx="0" ry="0"/>
        </g>
      </g>
    </g>
  </g>
</svg>
