<svg xmlns="http://www.w3.org/2000/svg" xmlns:xlink="http://www.w3.org/1999/xlink" width="17" height="23" viewBox="0 0 17 23">
  <defs>
    <path id="path-1" fill-rule="evenodd" d="M.00111198 8.97436523C-.07457542 4.12872314 3.72290802.10217285 8.50056458 0c4.77750778.10217285 8.57491302 4.12756348 8.49829864 9.00042725v.05108642c-.02555084 1.66662598-.47837067 3.30725098-1.33291626 4.74359131l-.7288208 1.02563477-5.38064957 7.64129638c-.07562637.10217285-.17581749.23034668-.30154419.30749512-.22590828.15319824-.50291061.23034668-.75436782.23034668-.40172577 0-.80445672-.20532227-1.05591202-.5639038l-6.11062432-8.66693116C.45393372 12.3326416.00111198 10.69213867.00111198 9.02545166v-.05108643zm3.72179604-.30841064c0 2.69226074 2.13737297 4.87176514 4.77765656 4.87176514 2.64028549 0 4.77765655-2.1795044 4.77765655-4.87176514 0-2.69232178-2.13737106-4.87182617-4.77765655-4.87182617-2.64028359 0-4.77765656 2.1795044-4.77765656 4.87182617z"/>
    <mask id="mask-2" x="0" y="0" maskContentUnits="userSpaceOnUse" maskUnits="userSpaceOnUse">
      <rect width="17" height="23" x="0" y="0" fill="black"/>
      <use fill="white" xlink:href="#path-1"/>
    </mask>
  </defs>
  <use fill-opacity="0" stroke="rgb(255,255,255)" stroke-linecap="butt" stroke-linejoin="miter" stroke-width="1.6" mask="url(#mask-2)" xlink:href="#path-1"/>
</svg>
