<svg xmlns="http://www.w3.org/2000/svg" width="30" height="25" viewBox="0 0 30 25">
  <g>
    <path fill="rgb(24,142,255)" fill-rule="evenodd" d="M3.46714783 5.5300293c0-1.21295166 1.02697754-2.19976807 2.2896881-2.19976807 1.26271058 0 2.2899933.9868164 2.2899933 2.19976807 0 1.21264648-1.02728272 2.19946289-2.2899933 2.19946289-1.26240539 0-2.2896881-.98651123-2.2896881-2.1994629zm1.23101806 0c0 .56079101.47486878 1.01696777 1.05867005 1.01696777.58381653 0 1.05899048-.45617676 1.05899048-1.01696777 0-.5610962-.47517395-1.01727295-1.05899048-1.01727295-.58380127 0-1.05867005.4564209-1.05867005 1.01727295z"/>
    <path fill="rgb(24,142,255)" fill-rule="evenodd" d="M29.14768982 21.7989502c.00061035-.00231934.00154114-.00439454.00215149-.00646973 1.13375854-3.19366455 1.13375854-6.70928955-.00030518-9.90350342l-.00123596-.0032959-.00462341-.01385498c-.00584412-.0159912-.01446533-.02960205-.02122498-.04467773-.00738525-.0168457-.0129242-.0336914-.02215576-.04992676-.00154114-.00268555-.00369263-.00476074-.00523376-.00738525-.0089264-.01483155-.02000428-.02813721-.03016663-.0419922-.01383972-.01922607-.02708435-.0390625-.04307556-.05615234-.00585938-.00622558-.01200867-.01098632-.01815796-.01660156-.0224762-.02276611-.04554749-.04431152-.07141113-.06323242l-.0012207-.00061035c-.0630951-.0458374-.1341858-.07891846-.20957947-.0984497l-.00462342-.0008545c-.0366211-.00915527-.07417297-.01538086-.1123352-.01837158-.00532532.00012207-.00671387.0001831-.0079956 0-.03753663-.0020752-.0750885-.00146485-.11264039.0032959-.00184631 0-.00369263.00085449-.00553894.00085449-.03907776.00506592-.0778656.01361084-.11663818.02630615-.00154114.00030518-.00276184.0012207-.00430298.00177002-.03170777.01068115-.0630951.0222168-.0935669.03814697l-5.7214508 3.0230713v-3.46087647c0-.6776123-.57365418-1.2286377-1.27871704-1.2286377H20.0027771c.7106018-.70184326 1.15007019-1.65759277 1.15007019-2.71148682 0-2.14715576-1.81851196-3.89398193-4.0537262-3.89398193-2.23521423 0-4.05343628 1.74682617-4.05343628 3.89398193 0 1.05389405.43978882 2.00964356 1.15008545 2.71148682h-4.8929901c1.34335326-1.01342773 2.21090697-2.58319092 2.21090697-4.34747314C11.51368713 2.480896 8.93101501 0 5.7568512 0 2.58267212 0 0 2.48059082 0 5.5300293c0 1.76428222.86755371 3.3340454 2.21090698 4.34747314h-.93188476C.57365417 9.87750244 0 10.42852784 0 11.10614014v12.66552734C0 24.44897461.57365417 25 1.27902222 25h19.98461914c.70506286 0 1.27871704-.5510254 1.27871704-1.22833252v-4.65612793l5.72207641 3.02337647c.01722718.0092163.03569031.01306152.0535431.0201416.0147705.00622558.02862548.01446533.04432678.01947021.00645447.0020752.01322937.00299072.01937866.00476074.02000427.00622559.04000854.0109253.06001282.01477051.02708435.00531006.05386352.0079956.08094787.00946045.01260376.00091553.02522278.00476074.0378418.00476074.06155395 0 .12187195-.01123047.18034363-.02838134.01016235-.0032959.01939392-.00830079.02955627-.01184082.04522705-.01599122.08831787-.0357666.12924195-.06152344.01416015-.0088501.026474-.01947022.03970336-.0298462.0326233-.02453613.06278992-.05200195.09017945-.08306884.01383972-.01593018.02615356-.03253174.0384674-.04992676.0101471-.01483154.02339173-.02630615.03231812-.04199219.01568604-.02722168.02645874-.05560302.03692627-.08337402.00184631-.00445557.00523376-.00738525.00645447-.01184082.00154114-.00384521.00247192-.00769043.00401306-.01153564zM5.7568512 1.18249512c-2.49557495 0-4.52583313 1.95025634-4.52583313 4.34747314 0 2.39727783 2.03025818 4.34753418 4.52583313 4.34753418 2.49557495 0 4.52583313-1.95025635 4.52583313-4.34753418 0-2.3972168-2.03025818-4.34747314-4.52583313-4.34747314zm8.51985168 5.9835205c0-1.49530029 1.2664032-2.71148681 2.82241821-2.71148681 1.55661011 0 2.82270813 1.21618652 2.82270813 2.71148681 0 1.4953003-1.26609802 2.71148682-2.82270813 2.71148682-1.55601501 0-2.8224182-1.21618652-2.8224182-2.71148682zm7.03463745 16.60565186c0 .02545166-.02122497.0458374-.04769897.0458374H1.27902222c-.02645874 0-.04800415-.02038574-.04800415-.0458374v-2.19708252h10.0404663c.33976746 0 .61550904-.26489258.61550904-.59124756 0-.32641601-.27574158-.59124756-.61550904-.59124756H1.23101807v-9.2859497c0-.02545166.0215454-.04614258.04800415-.04614258h19.98461914c.026474 0 .04769897.02069092.04769897.04614258v12.66552734zm6.88600159-10.84301758l-5.65498352 2.98791504v1.84973145l5.65467834 2.98760986c.76075745-2.54742432.76075745-5.27783203.00030518-7.82525635z"/>
    <path fill="rgb(24,142,255)" fill-rule="evenodd" d="M15.36799622 7.16601563c0-.91705323.77645874-1.66290284 1.73110961-1.66290284.95466614 0 1.73112488.74584961 1.73112488 1.66290283 0 .91705323-.77645874 1.66290284-1.73112488 1.66290284-.95465087 0-1.73110961-.74584961-1.73110961-1.66290284zm1.23101806 0c0 .26489257.22434998.48040771.50010681.48040771.27604676 0 .50009156-.21551514.50009156-.48040772 0-.26489257-.22434998-.48040771-.50009156-.48040771-.27575683 0-.5001068.21551514-.5001068.48040772z"/>
    <path fill="rgb(24,142,255)" fill-rule="evenodd" d="M16.92585754 12.11749268h1.154068c.6789093 0 1.23101806.53033447 1.23101806 1.18249511v8.2775879c0 .65216064-.55210876 1.18249511-1.23101806 1.18249511h-1.154068c-.6789093 0-1.23101806-.53033447-1.23101806-1.18249512V13.2999878c0-.65216064.55210876-1.18249511 1.23101806-1.18249511zm0 1.18249511v8.2775879h1.15499878l-.00091552-8.2775879h-1.15408326z"/>
  </g>
</svg>
