<svg xmlns="http://www.w3.org/2000/svg" width="24" height="24" viewBox="0 0 24 24">
  <g>
    <path fill="rgb(221,53,46)" fill-rule="evenodd" d="M0 12.01330566C0 5.39263916 5.37193298 0 12 0c6.62805176 0 11.99998474 5.41931152 11.99998474 12.01330566 0 6.59393311-5.37193298 11.98657227-11.99998474 11.98657227-6.62806702 0-12-5.36590576-12-11.98657227zm1.12249756-.00006103C1.12249756 17.9932251 5.9866333 22.87860107 12 22.87860107c6.01335144 0 10.87750244-4.91204834 10.87750244-10.8920288 0-5.97991944-4.864151-10.86535645-10.87750244-10.86535645-6.0133667 0-10.87750244 4.91210938-10.87750244 10.8920288z"/>
    <path fill="rgb(221,53,46)" fill-rule="evenodd" d="M16.06235207 11.42597927h-3.50111168V7.92877534c0-.72079776-1.12249383-.72079776-1.12249383 0v3.49720393H7.93763488c-.72160317 0-.72160317 1.12124096 0 1.12124096h3.50111168v3.49720394c0 .72079776 1.12249383.72079776 1.12249383 0v-3.49720394h3.50111168c.72160317.02669621.72160317-1.12124096 0-1.12124096z"/>
  </g>
</svg>
