<svg xmlns="http://www.w3.org/2000/svg" width="29.003" height="25.002" viewBox="0 0 29.003 25.002">
  <g>
    <path fill="rgb(19,159,42)" fill-rule="evenodd" d="M20.14047623 9.3624878c.28643799-.03143311.5743904-.04779053.86261749-.04901124 2.95505524.00061035 5.66919708 1.59796143 7.0591507 4.15466309 1.3899536 2.55664062 1.22938537 5.65625-.41761017 8.06170654-1.64699555 2.40545654-4.51223755 3.72503662-7.45215226 3.43206787-.05985641.0255127-.12426376.03918457-.1895256.04022217H2.00048065c-.23221206.00042725-.43415832-.15594482-.4875679-.37750244l-1.134655-4.81933594c-.50968933-2.17114258-.50421524-4.42791748.01600266-6.59661865.17521667-.72351074.40933227-1.4321289.70009613-2.11895752v-.0053711c.12501526-.30297851.2815361-.66778564.47156524-1.02960204.14588166-.29168702.27184296-.5925293.37705231-.90063477.22271729-.67382813.33660889-1.37768555.33754349-2.08605957.00079346-.21173096-.00955582-.4232788-.03100205-.63391113-.00049972-.00445557-.00400161-.00787354-.00400161-.01226807l-.01600266-.18530273-.35504913-2.769104C1.67593383 1.88580321 2.73740387.4156494 4.3249855.07354736 5.91256714-.2685547 7.5050087.62963866 8.00130463 2.1472168 8.41899109.86810303 9.631855.00024414 11.00172043.00024414c1.36985779 0 2.58272552.86785889 3.00041199 2.14697266C14.47507858.69885254 15.9529457-.19641113 17.48572159.0368042c1.53277588.23321533 2.66432571 1.52557373 2.6672554 3.04632568.0009613.13116455-.00739288.26220703-.02500534.39221192L19.94644928 4.901062l-.1895256 1.52227783c-.00099946.00634766-.0055008.0112915-.0055008.01763916v.0088501c-.08853912.91522217.01736832 1.83856201.31104279 2.71166992.02300262.06713868.0525055.13336182.07801056.20098877zM3.38967133 1.6897583c.59149551-.65612793 1.53514099-.88549805 2.37075424-.57617187.83561706.30932617 1.38919067 1.09283447 1.39076233 1.96856689.0007553.08752441-.0045929.1749878-.01600266.26177979l-.07400894.57653808H2.94060898l-.07400894-.57507324c-.07528305-.59985352.11513519-1.20251465.52307129-1.65563965zm8.37157821-.57617187c-.83561325-.30932618-1.77925873-.07995606-2.37075424.57617187-.4079361.453125-.59835434 1.05578613-.52307129 1.65563965l.07400894.57507324h4.12056732l.07400895-.57653808c.01140976-.086792.01675796-.17425538.01600265-.26177979-.00157165-.87573242-.55514526-1.65924072-1.39076233-1.9685669zm6.0008278 0c-.83561326-.30932618-1.77925874-.07995606-2.37075425.57617187-.4079361.453125-.59835434 1.05578613-.52307129 1.65563965l.07400894.57507324h4.12056732l.07400895-.57653808c.01140976-.086792.01675415-.17425538.01600265-.26177979-.00157165-.87573242-.55514526-1.65924072-1.39076233-1.9685669zm-10.0138054 5.3269043v.00885009l.00299835-.00097656c-.0798378.84143066.00502778 1.69012451.25003434 2.5003662.18314361-.61083984.27741623-1.24401855.28004074-1.88067626.00078964-.21166992-.00955582-.4232788-.03100586-.63391113-.00049973-.00445557-.00400162-.00787354-.00400162-.01226807l-.01600265-.18530273-.22903061-1.78460694-.05650711.44909668-.19102478 1.52178955c-.00099946.00634766-.0055008.0112915-.0055008.01763916zm6.00382233.00787353v-.0088501c0-.00634766.00450134-.0112915.0055008-.01763916l.18802642-1.52081299.05650711-.44909668.22903061 1.78460694.01600266.18530273c0 .00439453.00350189.0078125.00400161.01226807.02145005.21063232.0317955.4222412.03100586.63391113-.00262451.63665771-.09689712 1.26983643-.28004074 1.88067627-.24500656-.8102417-.32987213-1.65893555-.25003433-2.50036621zM6.80964279 5.8815918H3.1921463L3.06712723 4.901062h3.86753082l-.12501526.98052979zM9.0679512 4.901062l.12501908.98052979h3.61749649l.12501526-.98052979H9.0679512zm6.12584305.98052979h3.6174965L18.936306 4.901062h-3.86753082l.12501907.98052979zm-8.46116638.98052978H3.2751541c.0019989.06817627.0055008.13482666.0055008.20593262-.00094986.59094238-.07108689 1.1798706-.20903015 1.75512695h3.86103057c-.15312576-.64239502-.22036743-1.30163574-.20002746-1.96105957zm2.54335403 0h3.45747376c-.02033997.65942383.0469017 1.31866455.20002746 1.96105957H9.07245255c.13794326-.57525635.20808029-1.16418457.20903015-1.75512695 0-.07110596-.0035019-.13775635-.0055008-.20593262zm6.00082398 0h3.45747375c-.0201683.65942383.04706955 1.31860352.20002747 1.96105957h-3.86103058c.13794327-.57525635.2080803-1.16418457.20903015-1.75512695 0-.07110596-.0035019-.13775635-.0055008-.20593262zM2.60206223 10.19836426c-.04650498.10443115-.09301377.20251465-.14302063.3005371h-.00149918c-.05000687.09515382-.09251404.19024659-.1330185.28387452h4.90067292c.01950455-.04315186.0355072-.08435059.05600738-.12792969.00750351-.01672363.0170021-.03485107.02450562-.05200195.04850387-.10784912.09551239-.21032715.14551926-.30834961-.05300904-.11132813-.10301209-.2290039-.10301209-.2290039-.01800537-.03674317-.03400803-.07647706-.05001068-.11468507-.02050018-.04901123-.0415039-.0951538-.06150818-.14709472H2.76808548c-.00800324.02105713-.01650238.0392456-.02500534.05981445-.0525055.13336182-.10651398.25689697-.10651398.25689697-.01150131.02600098-.02300262.05249024-.03450393.0779419zm12.00014877 0l.03450775-.0779419s.05400467-.12353515.10651398-.25689697c.00849914-.02056885.0170021-.03875732.02500152-.05981445h3.4769783c-.67155456.2423706-1.30682754.57220459-1.8887596.98052978h-1.57471467c-.01750183-.038208-.03350448-.07989502-.05000687-.11669922-.00800323-.01861572-.01800155-.03625488-.02650451-.0548706-.05000687-.10986328-.10001373-.21325684-.1500206-.31427002.0170021-.03283692.0320053-.06671143.0470047-.10003662zm-6.15384674.32019043l.00799942-.01568604c.10601425-.20788574.20352936-.4284668.3000412-.67510986.00300216-.00683594.00650406-.01324463.00900268-.02008057h4.46861649c.00999832.0255127.02300262.04901123.03350448.07501221.0880127.22064209.1780243.4284668.27553559.61920166.00236511.0055542.0050354.0109253.00800323.01617432v.00341797c.04400635.08581542.08501053.17797851.12701416.26574707H8.32084656c.04250717-.09118653.08050918-.1809082.1275177-.26867676zm6.7494316 10.4711914c1.30025483 1.89440918 3.47628022 3.03082276 5.80529786 3.03186036 3.21320724.00152587 6.01495361-2.14160157 6.79496002-5.19763184.78000641-3.05603027-.6620102-6.24023438-3.49726105-7.72259522-2.83525085-1.48236084-6.33573532-.88220214-8.48958206 1.45556641-2.15384292 2.33770752-2.40800857 5.81280518-.61641693 8.42791748l.00300217.00488281zm-12.7972641 3.03186036L1.35289002 19.5836792c-.474617-2.02276611-.4699974-4.12530518.01350022-6.14605713.14087677-.56866455.32029724-1.12750244.53707504-1.67279053h4.93317795c-.92858124 2.58306885-1.08729935 5.37213135-.4575653 8.04046631l.99363708 4.2163086H2.40053177zm6.0008278 0H13.606575l.63258744-2.69403077c-1.71483613-2.65130615-1.64013672-6.05236816.1895256-8.62878418-.14551926-.4765625-.3225441-.93395996-.3225441-.93395996H7.9012909c-.2154541.5456543-.39468765 1.10443116-.53657531 1.67279053-.48349762 2.02075195-.48811722 4.12329102-.01350022 6.14605713l1.0501442 4.43792725zm6.78243255-12.23077393l.02400208-.02600098h-.03400421c.00300216.0088501.00650024.01715088.01000213.02600098zm-.55057525 12.23077393l.39355469-1.66693116c.60245895.66876221 1.3163681 1.23242188 2.11128997 1.66693116h-2.50484466z"/>
    <path fill="rgb(19,159,42)" fill-rule="evenodd" d="M24.86062376 20.27738582c-.74808343.88939433-1.79177666 1.4920577-2.94790553 1.70221924-.25368501.04645038-.42965034.27453484-.40619217.52650216.02345816.25196732.23863413.44504957.49670462.44570428.03051416.0000232.06097053-.00260181.09101252-.00784433 1.38751158-.25207687 2.64022592-.97498857 3.53848677-2.04197671.1759269-.20889823.1458139-.51806622-.06725925-.69054602-.21307315-.17247981-.52842-.14295685-.7043469.06594138h-.00050006z"/>
    <path fill="rgb(19,159,42)" fill-rule="evenodd" d="M26.16030255 19.1002463c.12765398.03547765.26445622.01976279.38028763-.04368471.1158314-.0634475.20119523-.16942571.23729733-.29460194.10045973-.34988302.1674254-.70818732.20002751-1.07026054.02227104-.26836368-.1803726-.5041189-.45391426-.52808294-.27354165-.02396405-.5156094.17283152-.54222277.44081479-.02761313.30138183-.0836946.59960102-.16752304.89082153-.03599798.12521806-.01975645.25932925.04514813.3728017.06490457.11347243.17314975.19700092.30089947.23219212z"/>
    <path fill="rgb(19,159,42)" fill-rule="evenodd" d="M26.21380991 9.96062331c.6608613.46125765 1.25558516 1.00739195 1.76824325 1.62377596.174546.2099813.48966895.24147978.70384683.07035381.21417787-.17112596.24630586-.48007444.07175987-.69005575-.56932293-.68438818-1.22981632-1.29071563-1.96377015-1.8027247-.22494615-.15250972-.53313184-.099558-.69177342.11885884-.15864157.21841685-.10888196.52126474.11169362.67979184z"/>
    <path fill="rgb(19,159,42)" fill-rule="evenodd" d="M21.0030931 7.82990764c-.01417464.27034584.19782123.50079374.47356514.51478404.9748125.04916452 1.9349015.25401319 2.84239102.60646463.05855172.02282862.1210137.03447718.18402531.03431894.2401465.00010376.44646017-.16716869.49143943-.3984432.04497925-.2312745-.08407782-.46124033-.30741411-.5477789-1.00838937-.39168515-2.07522498-.61938571-3.1584345-.67412196-.13282553-.0077434-.26326412.03709997-.36206872.1244753-.09880461.08737533-.15770828.20997195-.16350358.34030115z"/>
    <path fill="rgb(19,159,42)" fill-rule="evenodd" d="M21.00309372 14.7064209c.8285408 0 1.500206.6585083 1.500206 1.4708252 0 .81231689-.6716652 1.47082519-1.500206 1.47082519s-1.500206-.6585083-1.500206-1.4708252c0-.8123169.6716652-1.4708252 1.500206-1.4708252zm-.50006867 1.47088623c0 .27075195.2238884.49023437.50006867.49023437s.50006866-.21948242.50006866-.49023437c0-.27081299-.2238884-.49029541-.50006866-.49029541-.27618027 0-.50006867.21948242-.50006867.4902954z"/>
    <path fill="rgb(19,159,42)" fill-rule="evenodd" d="M19.00281906 11.76483154c.8285408 0 1.500206.6585083 1.500206 1.4708252 0 .8123169-.6716652 1.4708252-1.500206 1.4708252s-1.500206-.6585083-1.500206-1.4708252c0-.8123169.6716652-1.4708252 1.500206-1.4708252zm-.50006866 1.4708252c0 .27075195.2238884.49023437.50006866.49023437.27618027 0 .50006867-.21948242.50006867-.49023437 0-.27081299-.2238884-.49029541-.50006867-.49029541s-.50006866.21948242-.50006866.4902954z"/>
    <path fill="rgb(19,159,42)" fill-rule="evenodd" d="M24.50357437 13.23565674c0 .8123169-.67166519 1.4708252-1.500206 1.4708252-.8285408 0-1.50020599-.6585083-1.50020599-1.4708252 0-.8123169.6716652-1.4708252 1.500206-1.4708252s1.500206.6585083 1.500206 1.4708252zm-1.00013733 0c0-.27081299-.2238884-.49029541-.50006866-.49029541-.27618027 0-.50006867.21948242-.50006867.4902954 0 .27075196.2238884.49023438.50006867.49023438s.50006866-.21948242.50006866-.49023437z"/>
  </g>
</svg>
