<svg xmlns="http://www.w3.org/2000/svg" width="30" height="28" viewBox="0 0 30 28">
  <g>
    <path fill="rgb(169,4,9)" fill-rule="evenodd" d="M2.55319214 22.90905762h24.89361572c.1678772 0 .33255005-.0680542.4512024-.18652344.11880493-.11828613.18710327-.2824707.18710327-.4498291-.00134278-2.4442749-.69577027-4.84906006-2.00802613-6.9541626-.6338501-1.01690674-1.40042114-1.94665527-2.27874756-2.76312256-.88339233-.82086181-1.86834716-1.51708984-2.9265747-2.06817627-.09069825-.0470581-.19277954-.07189941-.29489136-.07189941-.23873901 0-.45581055.13110351-.56619263.34173584-.04785156.09161377-.07281494.19470215-.07281494.29718017.00134277.23675537.13275147.45245362.34347534.56188965 3.78695679 1.96765137 6.2814026 5.80682373 6.50991822 10.02020264H3.19851685c.21444702-6.05944824 5.15551757-11.02624512 11.24935913-11.30761719.35168457-.01654053.62423706-.31500244.6076355-.66564941-.01593018-.34997559-.31466675-.6217041-.66702271-.60577393-1.69018555.07952881-3.32614136.48040772-4.86126709 1.19189453-.73977661.3423462-1.45275879.75726319-2.11849976 1.23260498-.66064453.47155762-1.2810669 1.00738526-1.84469604 1.59222412-.5642395.58544922-1.07617188 1.22564698-1.52105713 1.90270997-.4500122.68347168-.83618164 1.41143798-1.14828491 2.1630249-.64916992 1.56414795-.97851563 3.21740722-.97979737 4.91333008v.22473144c.00256348.3480835.28915406.63122559.63830567.63122559zm14.89660644-12.3256836c.04595948.01013184.09262085.0152588.13916016.0152588.14233398 0 .28338623-.04901124.39572144-.13812257.1142578-.09033203.19470214-.21826171.22662353-.36016845.03701782-.16607666.00701904-.33660889-.0848999-.47979737-.09127808-.14318847-.2336731-.24249267-.40020752-.2793579-.18640137-.04138184-.38555908.00445556-.53491211.12280273-.11425781.09033203-.19467163.21826172-.22659302.36016845-.03701782.16607667-.0064392.33666993.08483887.4798584.09133911.14312744.2336731.24243164.40026855.27935791z"/>
    <path fill="rgb(169,4,9)" fill-rule="evenodd" d="M13.73168945 10.0602417c.40148926.16931152.82852173.25518799 1.26831055.25518799.43978882 0 .86679077-.08587647 1.26828003-.255188.38809204-.16351317.73660278-.39770507 1.03591919-.69616698.29934692-.29846192.53424072-.64587403.6982727-1.03216553.1697998-.40093994.25598145-.82598877.25598145-1.26507568 0-.43847657-.08618164-.86419678-.25598145-1.26446534-.16403198-.38690185-.39892578-.734375-.6982727-1.03283691-.2993164-.29779053-.64782715-.5326538-1.0359192-.696167-.40148925-.16925048-.8284912-.25518798-1.26828002-.25518798-.43978882 0-.86682129.0859375-1.26831055.25518799-.38806152.16351318-.73657226.39837646-1.0359497.69616699-.29934693.29846191-.53424073.64593506-.69830323 1.03283691-.16976928.40026856-.25595092.82598877-.25595092 1.26446534 0 .43908691.08618164.86413574.25595092 1.26507568.1640625.3862915.3989563.73370361.69830323 1.03216553.29937744.29846191.64788818.5326538 1.0359497.69616699zm-.13339233-4.39025879c.3753357-.37353516.87319946-.57910156 1.40170288-.57910156.52853394 0 1.0263977.2055664 1.40170288.57910156.37405396.37353516.58023071.86987305.58023071 1.39678955 0 .5275879-.20623779 1.02331543-.5802307 1.39746094-.37530518.3729248-.87316895.5784912-1.40170289.57910156-.52850342-.00061035-1.02636719-.20617676-1.40170288-.57910156-.37402344-.3741455-.5802002-.87054444-.5802002-1.39746094s.20617676-1.0232544.5802002-1.39678955z"/>
    <path fill="rgb(169,4,9)" fill-rule="evenodd" d="M.63830566 25.4545288h28.72338868c.1678772 0 .33255004-.06811523.4512329-.18652343C29.93170167 25.14971924 30 24.98553467 30 24.81817627v-2.5454712c0-.16735839-.06835938-.33154296-.18707275-.44989013-.11868287-.1184082-.28335572-.1864624-.45123291-.1864624H7.65957642c-.3517151 0-.63830567.28570557-.63830567.63635254 0 .35064697.28659058.63635254.63830567.63635254h21.06381225v1.27276611H1.27658081v-1.27276611c.35171509 0 .63830566-.28570557.63830566-.63635254 0-.35064697-.28659057-.63635254-.63830566-.63635254H.63830566c-.1678772 0-.33255004.06811523-.45129394.1864624C.06829834 21.94116211 0 22.10534668 0 22.27270508v2.54547119c0 .1673584.06829834.33154297.18701172.4498291.1187439.1184082.28341675.18652344.45129394.18652344zm3.19146729-3.18182372c0 .35064697.2859497.63635254.63830566.63635254.35168457 0 .63827515-.28570557.63827515-.63635254 0-.35064697-.28659058-.63635254-.63827515-.63635254-.35235595 0-.63830566.28570557-.63830566.63635254z"/>
    <path fill="rgb(169,4,9)" fill-rule="evenodd" d="M9.57510638 7c-.24382978 0-.46276595-.1349091-.5712766-.3519091-.15765957-.31372726-.0293617-.69681817.28531916-.85336363.3861702-.19154545.5361702-.3410909.59106383-.41363636.07340425-.10118182.10851063-.17245455.11361702-.39136364.00446808-.29527272-.12510639-.83554545-.38680851-1.60681818-.14042554-.41936364-.2112766-.82281818-.2112766-1.19890909-.0012766-.33345455.05553192-.65354545.17042553-.95072727.09446809-.24436364.22787234-.47218182.38617022-.658.24702127-.294.49021276-.44418182.61340425-.50781818C10.65510638.02227273 10.75085106 0 10.85042553 0c.24382979 0 .46276596.1349091.5712766.3519091.07531915.1501818.0887234.32072726.03638298.48045454-.05170213.15972727-.16212766.29018181-.31148937.36781818l-.00191489.00127273c-.00765957.00445454-.02297872.01463636-.04404255.02927272-.0331915.02481818-.10021277.07827273-.16787234.15909091-.1193617.14827273-.25723405.3729091-.26042553.79418182 0 .23863636.04914893.50718182.1461702.79672727.25276597.76681818.44680852 1.40127273.4519149 2.009.00574468.44163637-.13085106.85845455-.38361702 1.17409091-.23234042.29463637-.54.52436364-1.02702128.76872727C9.77042553 6.97772727 9.67468085 7 9.57510638 7z"/>
    <path fill="rgb(169,4,9)" fill-rule="evenodd" d="M19.78787234 8.9090909c-.24382979 0-.46276596-.13490908-.5712766-.35190908-.15765957-.31372727-.03-.69681818.28468086-.85336364.38687234-.19154545.5368085-.3410909.59176595-.41363636.07334043-.10054546.10780851-.17245455.1135532-.392.00446808-.294-.12510639-.8349091-.38680852-1.60618182-.14042553-.41872727-.2112766-.82218182-.2112766-1.1989091-.00191489-.33345454.0554681-.65354545.17042554-.95072726.09440426-.24436364.22780851-.47218182.38617021-.658.24638298-.29336364.48957447-.44418182.61276596-.50781819.00070213 0 .00070213-.00063636.00134043-.00063636.08929787-.04454545.18504255-.06681818.28404255-.06681818.24376596 0 .46276596.13490909.57121277.35190909.07538297.15018182.0880851.32072727.03638297.48045455-.05170212.1590909-.16212766.28954545-.31021276.36718181l-.0012766.00063637c0 .00063636-.00134042.00063636-.0019149.00127272-.00440425.00254546-.0203617.01272728-.04397871.02927273-.03325532.02481818-.10021277.07827273-.16787235.15909091-.1193617.1489091-.25723404.3729091-.26042553.79418182 0 .23927273.04914894.50718182.14617022.79672727.25276595.76681818.4468085 1.40127273.45185106 2.00836364.00510638.44227273-.13085106.8590909-.38361702 1.17472727-.23234043.29463636-.5393617.52436364-1.02702128.76872727-.08942553.04518182-.18517021.06745455-.28468085.06745455z"/>
    <path fill="rgb(169,4,9)" fill-rule="evenodd" d="M22.9787234 19.72727273c-.28340425 0-.5361702-.18963637-.61404255-.46136364-.58978723-2.07136364-2.12106383-3.54581818-3.3012766-4.41763636-1.38-1.022-2.67070212-1.51709091-2.68340425-1.52218182-.0064468-.00254546-.00765957-.00254546-.00829787-.00254546-.3293617-.12345454-.49723404-.49127272-.37346809-.81963636.0925532-.24690909.3331915-.413.59744681-.413.07659575 0 .1519149.01336364.22404255.04072727.00134043 0 .0031915.00127273.00638298.00254546.23297873.08972727 1.46489362.588 2.85574468 1.58836363.88212766.63572728 1.64106383 1.34024546 2.25644681 2.09306364.78.95518182 1.33653192 1.99811818 1.65446809 3.10036364.09638298.33727272-.10021277.69045454-.43851064.78718182-.0574468.01584545-.11680851.02411818-.17553192.02411818z"/>
    <path fill="rgb(169,4,9)" fill-rule="evenodd" d="M14.68085106 20.36363636H3.19148936c-.35170213 0-.63829787-.28572727-.63829787-.63636363 0-.35063637.28659574-.63636364.63829787-.63636364h11.4893617c.35170213 0 .63829788.28572727.63829788.63636364 0 .35063636-.28659575.63636363-.63829788.63636363z"/>
    <path fill="rgb(169,4,9)" fill-rule="evenodd" d="M28.08510638 28H1.27659574c-.35170212 0-.63829787-.28572727-.63829787-.63636364 0-.35133636.28659575-.63636363.63829787-.63636363h26.80851064c.35170213 0 .63829788.28502727.63829788.63636363 0 .35063637-.28659575.63636364-.63829788.63636364z"/>
  </g>
</svg>
