<svg xmlns="http://www.w3.org/2000/svg" width="26" height="26" viewBox="0 0 26 26">
  <g>
    <ellipse cx="13" cy="13" fill="rgb(58,158,253)" rx="13" ry="13"/>
    <path fill="rgb(1,1,19)" fill-rule="evenodd" d="M4.40908813 16.13635254L4 15.72729492l.40908813-.40917969L15.31816864 4.40905762 15.72727584 4l.40908433.40905762 1.36362457 1.36364746.4091072.40905762-.4091072.40917968c-.5320053.53198242-.53199005 1.3770752 0 1.90905762.53204727.53198242 1.37708283.53198242 1.90909195 0l.4091072-.40905762L20.22726823 8.5l1.36362457 1.36364746L22 10.27270508l-.4091072.40905762-10.90908051 10.90917968L10.27272415 22l-.40908813-.40905762-1.36363983-1.36364746-.40908814-.40905762.40908814-.40917968c.53202438-.53198242.53202438-1.3770752 0-1.90905762-.53200913-.53198242-1.37708664-.53198242-1.90909195 0l-.40908814.40905762L5.77272797 17.5l-1.36363984-1.36364746zm9.13635254-8.3182373l2.18183518-2.1817627.59657287.59655762c-.59233093.96520996-.4753685 2.25195312.35796357 3.08520507.83335113.83337403 2.11584472.94604493 3.08096695.35375977l.60085296.60083008-2.1818161 2.18188476-4.63637543-4.6364746zm-.81817627.8182373l-7.0908966 7.09094238.59657287.59655762c.9651413-.59228516 2.25191498-.4753418 3.08522797.35791016.83335114.83337402.94603348 2.11584472.35370255 3.08105468l.60085296.60083008 7.09090042-7.09094238-4.63636017-4.63635254zM11.03125 13.69030762l-.75852585-1.78125 1.78125382.75854492 1.482975-1.3125-.2088356 1.9473877 1.67044449.97167968-1.9133339.4473877-.4474449 1.91333008-.9716034-1.67041016-1.94742966.20874023 1.3125-1.48291015z"/>
  </g>
</svg>
