<svg xmlns="http://www.w3.org/2000/svg" width="22.752" height="23.873" viewBox="0 0 22.752 23.873">
  <path fill="rgb(255,255,255)" fill-rule="evenodd" d="M22.7520668 7.71361748L20.12561716 5.5097609l-.1653584.19706613c-.82386298.98184006-2.36760135 1.03570256-3.45812921.12063952-1.09052786-.91506303-1.30547096-2.44460456-.48159203-3.4264636l.16535839-.19706614L13.55935273.00000177-.00000343 16.15938656l2.62654318 2.20393503.16536084-.19706905c.82387647-.98185613 2.36750662-1.03577956 3.45803448-.12071652 1.09052786.91506303 1.30554853 2.44470202.48168677 3.42654061l-.16536085.19706906 2.62644967 2.20385657L22.7520668 7.71361748zm-.76844157.02683445l-9.26004658 11.0356756-8.31716852-6.97894454L13.6664567.76150739l1.79887535 1.50943813c-.80490407 1.1956806-.5433215 2.90227616.70608192 3.95065184 1.24977747 1.04868954 2.98250268 1.01629152 4.02016221.0151444l1.79204904 1.50371017zM9.0857014 23.11157365l3.30716046-3.94131387-8.31716852-6.97894453L.76853289 16.1326291l1.79887536 1.50943813c1.03774702-1.00030184 2.76384018-1.03903917 4.0132436.00933651 1.24977747 1.04868954 1.51875223 2.76071852.71300052 3.95645973l1.79204904 1.50371017z"/>
</svg>
