<svg xmlns="http://www.w3.org/2000/svg" width="26" height="26" viewBox="0 0 26 26">
  <g>
    <ellipse cx="13" cy="13" fill="rgb(221,53,46)" rx="13" ry="13"/>
    <path fill="rgb(255,255,255)" fill-rule="evenodd" d="M4.40908813 16.13635254L4 15.72729492l.40908813-.40911865L15.31816864 4.40911865 15.72727584 4l.40908433.40911865 1.36362457 1.36358643.4091072.40911865-.4091072.40905762c-.5320053.53204345-.53199005 1.37713623 0 1.90911865.53204727.53204346 1.37708283.53204346 1.90909195 0l.4091072-.40911865L20.22726823 8.5l1.36362457 1.36364746L22 10.27270508l-.4091072.40911865-10.90908051 10.90911865L10.27272415 22l-.40908813-.40905762-1.36363983-1.36364746-.40908814-.40911865.40908814-.40911865c.53202438-.53198242.53202438-1.37701416 0-1.90905762-.53200913-.53198242-1.37708664-.53204346-1.90909195 0l-.40908814.40911865L5.77272797 17.5l-1.36363984-1.36364746zm9.13635254-8.31817627l2.18183518-2.18182373.59657287.59661865c-.59233093.9650879-.4753685 2.2518921.35796357 3.08520508.83335113.83331299 2.11584472.94604492 3.08096695.35369873l.60085296.60083008-2.1818161 2.18182373-4.63637543-4.63635254zm-.81817627.81817627l-7.0908966 7.09094238.59657287.59655762c.9651413-.5923462 2.25191498-.4753418 3.08522797.35797119.83335114.83331299.94603348 2.11584473.35370255 3.08093262l.60085296.60089111 7.09090042-7.09094238-4.63636017-4.63635254zM11.03125 13.69030762l-.75852585-1.78125 1.78125382.75854492 1.482975-1.3125-.2088356 1.94744873 1.67044449.97161865-1.9133339.4473877-.4474449 1.91339111-.9716034-1.6704712-1.94742966.20880128 1.3125-1.4829712z"/>
  </g>
</svg>
