<svg xmlns="http://www.w3.org/2000/svg" width="26" height="26" viewBox="0 0 26 26">
  <g>
    <ellipse cx="13" cy="13" fill="rgb(247,164,0)" rx="13" ry="13"/>
    <path fill="rgb(1,1,19)" fill-rule="evenodd" d="M4.40908813 16.13635254L4 15.72729492l.40908813-.40911865L15.31817627 4.40911865 15.72727967 4l.40908813.40911865 1.36361694 1.36358643.4091034.40911865-.4091034.40905762c-.53201294.53204345-.53198242 1.37713623 0 1.90911865.53204346.53204346 1.37709046.53204346 1.90908814 0l.40910339-.40911865L20.2272644 8.5l1.3636322 1.36364746L22 10.27270508l-.4091034.40911865-10.90908813 10.90911865L10.27272034 22l-.40908814-.40905762L8.5 20.22729492l-.40908813-.40911865L8.5 19.40905762c.5320282-.53198242.5320282-1.37701416 0-1.90905762-.53201294-.53198242-1.37709045-.53204346-1.9091034 0l-.40907287.40911865L5.7727356 17.5l-1.36364747-1.36364746zm9.13635254-8.31817627l2.181839-2.18182373.59657287.59661865c-.59233093.9650879-.47537232 2.2518921.35795593 3.08520508.83335877.83331299 2.11584473.94604492 3.08096314.35369873l.6008606.60083008-2.18180848 2.18182373-4.63638306-4.63635254zm-.81817627.81817627l-7.0908966 7.09094238.59657287.59655762c.96514893-.5923462 2.25192261-.4753418 3.0852356.35797119.8333435.83331299.94602966 2.11584473.35369873 3.08093262l.60084534.60089111 7.0908966-7.09094238-4.63635254-4.63635254zM11.03125 13.69030762l-.75852966-1.78125 1.78125.75854492 1.48298645-1.3125-.20883179 1.94744873 1.67044067.97161865-1.91334533.4473877-.44743347 1.91339111-.9716034-1.6704712-1.94743347.20880128 1.3125-1.4829712z"/>
  </g>
</svg>
